# xmcd
#
# Track frame offsets: 
#        150
#        8112
#        17910
#        30045
#        39907
#        48202
#        59700
#        66842
#        75250
#        86395
#        96360
#        105005
#        114105
#        124470
#        134580
#        142315
#        150297
#        160890
#        170180
#        179047
#        190172
#        201102
#        211397
#        223320
#        232942
#        242732
#        253645
#        263440
#        272065
#
# Disc length: 3751 seconds
#
# Revision: 2
# Processed by: cddbd v1.5.2PL0 Copyright (c) Steve Scherf et al.
# Submitted via: ExactAudioCopy v1.0b1
#
DISCID=8e0ea51d
DTITLE=Johnny Cash - The Man In Black 1954-1958 - Disc 3
DYEAR=1990
DGENRE=Country
TTITLE0=Sugartime (alt) (mono)
TTITLE1=Born To Lose (alt - undubbed) (mono)
TTITLE2=You're The Nearest Thing To Heaven (mono)
TTITLE3=Born To Lose (mono)
TTITLE4=Sugartime (mono)
TTITLE5=Story Of A Broken Heart (alt) (mono)
TTITLE6=Always Alone (alt - incomplete) (mono)
TTITLE7=Always Alone (mono)
TTITLE8=Story Of A Broken Heart (alt - false starts) (mono)
TTITLE9=Story Of A Broken Heart (mono)
TTITLE10=You Tell Me (mono)
TTITLE11=Life Goes On (mono)
TTITLE12=You Win Again (mono)
TTITLE13=I Could Never Be Ashamed Of You (mono)
TTITLE14=Hey Good Lookin' (mono)
TTITLE15=I Can't Help It (mono)
TTITLE16=Cold Cold Heart (mono)
TTITLE17=Blue Train (mono)
TTITLE18=Katy Too (mono)
TTITLE19=The Ways Of A Woman In Love (alt) (mono)
TTITLE20=Fools Hall Of Fame (mono)
TTITLE21=The Ways Of A Woman In Love (mono)
TTITLE22=Thanks A Lot (mono)
TTITLE23=It's Just About Time (alt) (mono)
TTITLE24=I Forgot To Remember To Forget (alt) (mono)
TTITLE25=I Just Thought You'd Like To Know (mono)
TTITLE26=It's Just About Time (mono)
TTITLE27=I Forgot To Remember To Forget (mono)
TTITLE28=Down The Street To 301 (mono)
EXTD=YEAR: 1990 ID3G: 2
EXTT0=
EXTT1=
EXTT2=
EXTT3=
EXTT4=
EXTT5=
EXTT6=
EXTT7=
EXTT8=
EXTT9=
EXTT10=
EXTT11=
EXTT12=
EXTT13=
EXTT14=
EXTT15=
EXTT16=
EXTT17=
EXTT18=
EXTT19=
EXTT20=
EXTT21=
EXTT22=
EXTT23=
EXTT24=
EXTT25=
EXTT26=
EXTT27=
EXTT28=
PLAYORDER=
